<svg width="68" height="20" viewBox="0 0 68 20" fill="none" xmlns="http://www.w3.org/2000/svg">
<path d="M0 9.92177C0 9.11821 0.651413 8.4668 1.45497 8.4668H65.5559V11.3767H1.45497C0.651416 11.3767 0 10.7253 0 9.92177Z" fill="white"/>
<path d="M56.303 19.8445C55.8524 19.8445 55.4078 19.6354 55.1226 19.2436C54.6516 18.593 54.7948 17.6825 55.4474 17.2126L64.7195 10.4944C64.957 10.3229 65.092 10.128 65.092 9.95851C65.093 9.79002 64.958 9.59313 64.7205 9.42057L55.4393 2.62915C54.7917 2.15515 54.6507 1.24369 55.1247 0.596117C55.5977 -0.0524675 56.5051 -0.193564 57.1577 0.280461L66.4389 7.07188C67.4346 7.79964 68.003 8.85423 68 9.96467C67.999 11.0751 67.4234 12.1266 66.4257 12.8502L57.1536 19.5683C56.8978 19.7541 56.5994 19.8444 56.303 19.8444V19.8445Z" fill="white"/>
</svg>
