<svg width="68" height="20" viewBox="0 0 68 20" fill="none" xmlns="http://www.w3.org/2000/svg">
<path d="M68 9.92177C68 9.11821 67.3486 8.4668 66.545 8.4668H2.44405V11.3767H66.545C67.3486 11.3767 68 10.7253 68 9.92177Z" fill="white"/>
<path d="M11.697 19.8445C12.1476 19.8445 12.5922 19.6354 12.8774 19.2436C13.3484 18.593 13.2052 17.6825 12.5526 17.2126L3.28049 10.4944C3.04298 10.3229 2.90799 10.128 2.90799 9.95851C2.90697 9.79002 3.04198 9.59313 3.27949 9.42057L12.5607 2.62915C13.2083 2.15515 13.3493 1.24369 12.8753 0.596117C12.4023 -0.0524675 11.4949 -0.193564 10.8423 0.280461L1.56108 7.07188C0.565379 7.79964 -0.00302219 8.85423 1.81198e-05 9.96467C0.00103283 11.0751 0.576564 12.1266 1.5743 12.8502L10.8464 19.5683C11.1022 19.7541 11.4006 19.8444 11.697 19.8444V19.8445Z" fill="white"/>
</svg>
