<svg width="316" height="201" viewBox="0 0 316 201" fill="none" xmlns="http://www.w3.org/2000/svg">
    <path d="M71.4938 0.0041199C32.0713 0.0041199 0 32.0812 0 71.5012C0 107.423 26.4598 137.557 61.8414 142.319C65.7055 171.575 41.2855 196.461 41.031 196.715C40.2942 197.452 40.143 198.601 40.6739 199.508C41.0922 200.229 41.8579 200.65 42.6655 200.65C42.8714 200.65 43.0805 200.621 43.2832 200.566C146.388 171.925 143.134 74.77 142.986 71.4425C142.954 32.0489 110.896 0.00390625 71.4925 0.00390625L71.4938 0.0041199ZM49.6028 193.834C57.2859 183.999 70.1232 163.452 66.1367 139.863C65.9662 138.843 65.1362 138.067 64.113 137.955C30.1918 134.226 4.6141 105.662 4.6141 71.5025C4.6141 34.6219 34.6164 4.62612 71.4938 4.62612C108.374 4.62612 138.377 34.6219 138.377 71.5025C138.377 71.5475 138.377 71.5926 138.38 71.6376C138.435 72.5707 142.649 163.277 49.5986 193.835L49.6028 193.834Z" fill="#ECDE62"/>
    <path d="M315.962 71.4386C315.93 32.0417 283.871 0 244.468 0C205.046 0 172.974 32.0771 172.974 71.4971C172.974 107.419 199.434 137.553 234.816 142.315C238.68 171.571 214.26 196.456 214.005 196.711C213.268 197.448 213.117 198.596 213.648 199.504C214.066 200.224 214.832 200.646 215.64 200.646C215.846 200.646 216.055 200.617 216.257 200.562C319.362 171.921 316.109 74.7659 315.96 71.4384L315.962 71.4386ZM222.576 193.825C230.259 183.99 243.097 163.443 239.11 139.854C238.94 138.834 238.11 138.058 237.086 137.946C203.165 134.217 177.587 105.653 177.587 71.4934C177.587 34.6128 207.59 4.61706 244.467 4.61706C281.348 4.61706 311.35 34.6128 311.35 71.4934C311.35 71.5385 311.35 71.5835 311.353 71.6286C311.408 72.5616 315.623 163.268 222.572 193.825L222.576 193.825Z" fill="#ECDE62"/>
</svg>
