<svg width="157" height="69" viewBox="0 0 157 69" fill="none" xmlns="http://www.w3.org/2000/svg">
<path d="M154 37.2195C152 31.3862 143.7 17.9195 126.5 10.7195C105 1.7195 91.174 9.88169 86.5 14.7195C81.8261 19.5573 74 35.5 81.5 53.5C91.5 71.5 108 49.718 108 32.2188C108 14.7195 85 3.21875 78.5 3.21875C72 3.21875 49.5 -0.28125 31.5 20.7188C17.1 37.5187 9.83333 58.0521 8 66.2188" stroke="black" stroke-width="5"/>
<path d="M3 39C3.66667 47.1667 5.2 64 6 66C6.8 68 27 60.1667 37 56" stroke="black" stroke-width="5"/>
</svg>
