<svg width="31" height="31" viewBox="0 0 31 31" fill="none" xmlns="http://www.w3.org/2000/svg">
<path d="M30.5305 15.6014V15.5002C30.5291 13.2695 30.0316 11.0671 29.0743 9.05237C28.1169 7.03761 26.7235 5.26095 24.995 3.85098L24.9082 3.77872L24.8071 3.70645C22.6004 1.96272 19.9488 0.873068 17.1536 0.561361C14.3585 0.249653 11.5319 0.728398 8.99535 1.94317L8.80746 2.04434C6.75691 3.06725 4.96627 4.54375 3.5714 6.36184C2.17654 8.17992 1.21408 10.2918 0.757066 12.5373V12.5662C0.201547 15.3435 0.444333 18.2213 1.45729 20.8663C2.47026 23.5112 4.21193 25.815 6.4805 27.5107L6.66839 27.6553H6.68285C8.6454 29.0782 10.923 30.0054 13.3214 30.3577C15.7198 30.7101 18.1678 30.4771 20.4567 29.6787L20.6157 29.6209C23.4953 28.5743 25.9871 26.6743 27.7587 24.1745C29.5303 21.6747 30.4972 18.694 30.5305 15.6303V15.6014ZM28.1602 14.3729L27.0618 14.344C24.9193 14.3457 22.7862 14.6275 20.7168 15.1822C20.2097 13.6859 19.5561 12.2432 18.7657 10.8752C20.8229 9.6358 22.6837 8.09647 24.2868 6.30801C26.5164 8.43532 27.8936 11.3028 28.1602 14.3729ZM22.4801 4.87716C21.0363 6.4633 19.3658 7.82703 17.5227 8.92403C15.9752 6.7551 14.0862 4.85148 11.9293 3.28731C13.6983 2.77335 15.5577 2.64932 17.3793 2.9238C19.2008 3.19829 20.9411 3.86473 22.4801 4.87716ZM9.37113 4.35684C11.7398 5.84312 13.8046 7.76573 15.4559 10.0225C12.5666 11.3445 9.42668 12.0297 6.24925 12.0315C5.26785 12.0293 4.28768 11.9617 3.31527 11.8291C4.2849 8.64536 6.45727 5.9649 9.37113 4.35684ZM2.7805 15.5002C2.7805 15.0232 2.80941 14.5607 2.85277 14.1127C3.97884 14.2621 5.11332 14.3394 6.24925 14.344C9.87559 14.3491 13.4567 13.539 16.7278 11.9736C17.4485 13.2172 18.044 14.5292 18.5055 15.8904C17.2793 16.3577 16.0906 16.9182 14.95 17.567C11.7804 19.4021 9.06369 21.9262 7.00082 24.9525C5.67327 23.7615 4.61139 22.3043 3.88426 20.6757C3.15713 19.0471 2.78106 17.2837 2.7805 15.5002ZM8.85082 26.34C11.3557 22.6109 14.949 19.7444 19.1414 18.1307C19.4937 19.7206 19.673 21.344 19.6762 22.9725C19.6755 24.5518 19.5059 26.1265 19.1703 27.6697C17.9814 28.037 16.7437 28.2222 15.4993 28.2189C13.1522 28.2181 10.8511 27.5678 8.85082 26.34ZM21.7285 26.5857C21.9025 25.3892 21.9894 24.1816 21.9887 22.9725C21.9875 21.0996 21.7742 19.2329 21.3528 17.408C23.2152 16.9114 25.1342 16.6587 27.0618 16.6565L28.1602 16.6854C27.9671 18.7322 27.2812 20.7019 26.1611 22.426C25.0411 24.1501 23.5202 25.5774 21.7285 26.5857Z" fill="white"/>
</svg>
