<svg width="28" height="29" viewBox="0 0 28 29" fill="none" xmlns="http://www.w3.org/2000/svg">
<path d="M5.88667 28.0094H0.0959473V8.70703H5.88667V28.0094ZM27.1193 28.0094H21.3286V17.6981C21.3286 15.0112 20.3712 13.6735 18.4738 13.6735C16.9701 13.6735 16.0166 14.4225 15.5379 15.9223V28.0094H9.74715C9.74715 28.0094 9.82436 10.6373 9.74715 8.70703H14.318L14.6712 12.5675H14.7909C15.978 10.6373 17.8754 9.32857 20.4774 9.32857C22.4559 9.32857 24.056 9.87869 25.2779 11.2607C26.5074 12.6447 27.1193 14.5016 27.1193 17.1094V28.0094Z" fill="white"/>
<path d="M2.99114 6.78095C4.6435 6.78095 5.98301 5.48466 5.98301 3.88559C5.98301 2.28653 4.6435 0.990234 2.99114 0.990234C1.33877 0.990234 -0.000732422 2.28653 -0.000732422 3.88559C-0.000732422 5.48466 1.33877 6.78095 2.99114 6.78095Z" fill="white"/>
</svg>
