<svg width="31" height="25" viewBox="0 0 31 25" fill="none" xmlns="http://www.w3.org/2000/svg">
<path d="M28.5399 3.20293L30.9943 0.844629V0.328125H22.494L16.4361 15.4789L9.54534 0.328125H0.632641V0.844629L3.49944 4.31201C3.77971 4.56826 3.92385 4.94463 3.88782 5.321V18.9463C3.9759 19.4388 3.81975 19.9393 3.47541 20.2956L0.244263 24.2314V24.7399H9.39719V24.2234L6.17004 20.2996C5.99714 20.1241 5.86707 19.911 5.78999 19.6769C5.7129 19.4429 5.69087 19.1942 5.72561 18.9503V7.16279L13.7615 24.7479H14.6944L21.6051 7.16279V21.1725C21.6051 21.5408 21.6051 21.6169 21.3649 21.8611L18.8784 24.2755V24.792H30.9382V24.2755L28.5399 21.9172C28.3317 21.757 28.2236 21.4888 28.2676 21.2285V3.8916C28.2469 3.76294 28.2612 3.63106 28.3091 3.50986C28.357 3.38867 28.4368 3.28263 28.5399 3.20293Z" fill="white"/>
</svg>
