<svg width="390" height="124" viewBox="0 0 390 124" fill="none" xmlns="http://www.w3.org/2000/svg">
<path d="M389.791 72.1102C389.058 67.9297 387.035 64.0661 383.992 61.0337C382.684 59.7475 381.55 58.3042 380.617 56.7388C379.297 54.3518 377.461 52.2731 375.234 50.6467C374.522 49.6584 373.62 48.814 372.578 48.1601C367.089 44.1022 361.322 40.4128 355.319 37.1176L354.831 36.9593L354.263 36.7785C344.339 31.3239 334.051 26.5246 323.467 22.413C313.089 18.2821 302.46 14.7792 291.639 11.9242C291.291 11.8338 290.92 11.7999 290.549 11.7434C290.178 11.6869 290.085 11.5174 289.853 11.4269L289.679 11.3704L286.199 10.4888C284.413 10.0367 282.626 9.59593 280.84 9.16643L279.819 8.92908C266.1 5.71501 252.172 3.41154 238.132 2.03454C226.046 0.904285 213.913 0.316554 201.826 0.124411C181.145 -0.180757 160.533 8.3352e-05 139.979 1.91021C129.285 2.92744 118.66 4.45328 108.105 6.43122C95.0943 8.87842 82.2371 12.0445 69.5955 15.914C69.1418 16.1559 68.6095 16.2167 68.1108 16.0836C67.6468 16.0836 67.2872 16.5131 66.7885 16.4114C66.7305 17.033 66.1621 17.0104 65.7561 17.1121C64.2946 17.4512 62.9955 18.378 61.418 18.2424C60.9541 18.2424 60.5829 18.6606 60.0841 18.5588C60.0918 18.6707 60.0605 18.7818 59.9952 18.8741C59.9299 18.9664 59.8345 19.0346 59.7245 19.0674L51.1875 22.04C50.9649 22.0776 50.7374 22.0776 50.5148 22.04C50.2712 22.2095 50.0624 22.4356 49.726 22.3565C49.1461 23.1024 48.2065 23.125 47.4062 23.4302C42.8477 25.1934 38.2776 27.0131 33.8467 28.9685H33.7655C33.5567 29.0702 33.3596 29.2171 33.1624 29.3414C32.6752 29.5223 32.1764 29.6805 31.6893 29.8727L31.3645 29.997C25.6661 32.464 20.1339 35.2802 14.8008 38.4287C9.96388 41.1738 5.85582 44.9871 2.80726 49.5617C1.38783 51.5796 0.477768 53.8959 0.151226 56.3216C-0.175316 58.7473 0.0909012 61.2138 0.928185 63.5203C1.00938 63.735 1.07897 63.9611 1.17177 64.1758C1.52107 65.0555 1.92787 65.9125 2.38968 66.7415C2.65647 67.2162 2.93485 67.7022 3.24803 68.1882C3.24803 68.3917 3.24803 68.5838 3.50321 68.6629V68.8777V69.1602C4.32675 70.3583 5.24309 71.4999 5.97384 72.7544C10.9383 81.1522 17.2947 88.1598 26.2028 92.6017C26.3283 92.7812 26.4808 92.9412 26.6552 93.0764C29.6678 94.7015 32.7651 96.1728 35.9346 97.4844C44.5064 101.056 53.5074 103.215 62.6127 105.114H64.0163L63.4827 104.989C63.6656 105.006 63.8453 105.048 64.0163 105.114L71.2194 106.47C67.0253 106.658 62.8228 106.545 58.6458 106.131C52.0907 105.514 45.5924 104.418 39.2056 102.853L37.0481 102.367L35.9578 102.164C35.2776 101.992 34.5825 101.882 33.8815 101.836H33.4291C33.4001 101.767 33.4001 101.69 33.4291 101.621C32.7821 101.451 32.1021 101.438 31.4489 101.584C30.7957 101.73 30.1892 102.03 29.6826 102.457C29.5467 102.578 29.3833 102.666 29.2058 102.713C29.0284 102.76 28.8419 102.766 28.6619 102.729C27.7107 102.593 27.5832 103.057 27.8035 103.859C28.1979 105.272 29.381 106.119 30.1234 107.318C32.4399 112.132 36.531 115.921 41.5834 117.931C41.8386 118.405 42.3605 118.383 42.7433 118.541C45.7179 119.593 48.7798 120.395 51.8951 120.937C61.5251 122.779 71.3116 123.732 81.1251 123.785C93.6406 124.09 106.168 123.932 118.683 123.661C126.687 123.491 134.69 123.254 142.694 123.13C153.493 122.949 164.268 122.497 175.055 122C182.015 121.683 188.893 121.31 195.818 120.926C207.011 120.304 218.193 119.603 229.363 118.733C237.239 118.123 245.138 117.682 253.014 116.981C264.764 115.93 276.525 114.913 288.252 113.59C299.48 112.302 310.639 110.629 321.704 108.437C330.404 106.707 339.01 104.594 347.536 102.175C355.517 100.062 363.36 97.4846 371.024 94.4553C375.042 92.8989 378.806 90.7779 382.194 88.1598C383.972 86.9164 385.419 85.2773 386.416 83.3788C386.706 82.9719 387.019 82.5763 387.274 82.1468C389.165 79.1178 390.522 75.8739 389.791 72.1102ZM25.4489 75.953C23.1757 74.8093 21.0789 73.3597 19.2201 71.6468C18.5126 69.3298 17.9326 66.9788 18.7214 64.5827C19.909 60.9336 22.1573 57.6985 25.1937 55.2694C27.8535 53.2151 30.7038 51.4065 33.7075 49.8668C43.8568 44.5344 54.4262 39.999 65.3154 36.3038C74.6991 32.913 84.2453 30.0987 93.919 27.6235C108.818 23.8311 123.985 21.1224 139.295 19.5195C150.767 18.3102 162.296 17.7563 173.837 17.5868C192.872 17.2929 211.895 17.4399 230.906 18.7849C238.561 19.3274 246.193 20.096 253.768 21.181C264.981 22.7845 276.1 24.9575 287.081 27.6913C304.2 31.9746 320.907 37.6924 337.015 44.7807C337.471 45.0985 338.021 45.2613 338.581 45.2441C348.616 49.6951 358.24 54.9777 367.347 61.0337C368.936 62.0962 370.827 62.8534 371.859 64.5601C371.962 64.7638 372.047 64.9755 372.114 65.193C372.424 66.465 372.307 67.8004 371.778 69.002C371.113 70.9308 370.062 72.7121 368.687 74.2428C367.311 75.7734 365.637 77.0232 363.763 77.9197L358.972 80.3271C354.994 81.7286 351.073 83.2658 347.037 84.4865C335.1 88.1021 322.963 91.0605 310.685 93.3476C310.3 93.3984 309.913 93.4286 309.525 93.438H308.365H308.284H307.344L304.468 94.0258H304.213L303.725 94.1275L302.681 94.3083L302.055 94.3988C301.058 94.5344 300.06 94.6587 299.074 94.8961L298.726 94.9865C298.425 95.0656 298.123 95.156 297.821 95.2691C297.621 95.2563 297.419 95.2563 297.218 95.2691H296.743C295.422 95.4911 294.08 95.5782 292.741 95.529C291.942 95.7906 291.1 95.9018 290.259 95.8568C289.629 96.0454 288.985 96.1852 288.333 96.275C287.533 96.388 286.733 96.4558 285.932 96.535L285.074 96.6254C281.463 97.0247 277.848 97.4015 274.229 97.7556L268.127 98.366L266.968 98.479L264.798 98.6711L263.163 98.7955L261.539 98.9085L260.379 98.9876H259.741L258.013 99.1232H257.282L256.343 99.191H253.315C252.248 99.7788 250.995 99.3493 249.905 99.6997H249.766L246.936 99.8014C246.611 100.095 246.217 99.9483 245.845 99.9822L243.027 100.073C242.795 100.321 242.493 100.242 242.215 100.253L239.698 100.434L238.399 100.525C234.327 100.819 230.279 101.112 226.185 101.44C224.65 101.678 223.091 101.723 221.545 101.576L204.575 102.966C206.211 102.367 207.672 102.446 208.948 101.836L216.592 100.513C216.851 100.436 217.101 100.33 217.335 100.197C218.703 99.9144 220.304 100.276 221.243 98.8407C221.545 98.5694 221.858 98.2981 222.148 98.0156C223.215 96.987 223.169 96.7384 221.974 95.902C220.868 94.9775 219.995 93.8173 219.422 92.5112C218.911 91.4408 218.032 90.5781 216.937 90.0725C215.842 89.5668 214.6 89.45 213.426 89.7421C207.185 90.7254 200.945 91.7766 194.681 92.5904C179.53 94.4516 164.274 95.3803 149.004 95.3708C128.69 95.5365 108.381 94.699 88.1542 92.8616C75.257 91.7855 62.4944 89.5147 50.0392 86.0801C41.4211 83.7728 33.153 80.3677 25.4489 75.953Z" fill="#ECDE62"/>
</svg>
