<svg width="337" height="110" viewBox="0 0 337 110" fill="none" xmlns="http://www.w3.org/2000/svg">
<path d="M336.05 63.7998C335.418 60.101 333.673 56.6827 331.05 53.9998C329.923 52.8618 328.945 51.5848 328.14 50.1998C327.003 48.0879 325.419 46.2487 323.5 44.8098C322.886 43.9354 322.108 43.1883 321.21 42.6098C316.477 39.0195 311.506 35.7553 306.33 32.8398L305.91 32.6998L305.42 32.5398C296.864 27.7138 287.994 23.4676 278.87 19.8298C269.923 16.1749 260.759 13.0757 251.43 10.5498C251.13 10.4698 250.81 10.4398 250.49 10.3898C250.17 10.3398 250.09 10.1898 249.89 10.1098L249.74 10.0598L246.74 9.27977C245.2 8.87977 243.66 8.48977 242.12 8.10977L241.24 7.89977C229.412 5.0561 217.404 3.01809 205.3 1.79977C194.88 0.799772 184.42 0.279772 174 0.109772C156.17 -0.160228 138.4 -0.000227571 120.68 1.68977C111.46 2.58977 102.3 3.93977 93.2 5.68977C81.9833 7.85496 70.8987 10.6561 60 14.0798C59.6089 14.2938 59.15 14.3475 58.72 14.2298C58.32 14.2298 58.01 14.6098 57.58 14.5198C57.53 15.0698 57.04 15.0498 56.69 15.1398C55.43 15.4398 54.31 16.2598 52.95 16.1398C52.55 16.1398 52.23 16.5098 51.8 16.4198C51.8066 16.5187 51.7796 16.617 51.7233 16.6987C51.6671 16.7804 51.5848 16.8407 51.49 16.8698L44.13 19.4998C43.9381 19.533 43.7419 19.533 43.55 19.4998C43.34 19.6498 43.16 19.8498 42.87 19.7798C42.37 20.4398 41.56 20.4598 40.87 20.7298C36.94 22.2898 33 23.8998 29.18 25.6298H29.11C28.93 25.7198 28.76 25.8498 28.59 25.9598C28.17 26.1198 27.74 26.2598 27.32 26.4298L27.04 26.5398C22.1273 28.7225 17.3578 31.2142 12.76 33.9998C8.58993 36.4286 5.04826 39.8024 2.42 43.8498C1.19628 45.6352 0.411687 47.6845 0.130166 49.8307C-0.151355 51.9768 0.0781586 54.1591 0.800005 56.1998C0.870005 56.3898 0.930005 56.5898 1.01 56.7798C1.31114 57.5581 1.66186 58.3163 2.06 59.0498C2.29 59.4698 2.53 59.8998 2.8 60.3298C2.8 60.5098 2.8 60.6798 3.02 60.7498V60.9398V61.1898C3.73 62.2498 4.52 63.2598 5.15 64.3698C9.43001 71.7998 14.91 77.9998 22.59 81.9298C22.6981 82.0886 22.8296 82.2302 22.98 82.3498C25.5773 83.7876 28.2475 85.0893 30.98 86.2498C38.37 89.4098 46.13 91.3198 53.98 92.9998H55.19L54.73 92.8898C54.8877 92.9047 55.0426 92.9417 55.19 92.9998L61.4 94.1998C57.7842 94.3661 54.1611 94.2658 50.56 93.8998C44.9087 93.3537 39.3063 92.3843 33.8 90.9998L31.94 90.5698L31 90.3898C30.4136 90.238 29.8144 90.1409 29.21 90.0998H28.82C28.795 90.0389 28.795 89.9706 28.82 89.9098C28.2622 89.7594 27.6759 89.7482 27.1128 89.8772C26.5496 90.0062 26.0267 90.2715 25.59 90.6498C25.4729 90.7567 25.332 90.8342 25.179 90.8759C25.0259 90.9177 24.8652 90.9224 24.71 90.8898C23.89 90.7698 23.78 91.1798 23.97 91.8898C24.31 93.1398 25.33 93.8898 25.97 94.9498C27.9671 99.2095 31.4942 102.562 35.85 104.34C36.07 104.76 36.52 104.74 36.85 104.88C39.4145 105.811 42.0542 106.52 44.74 107C53.0423 108.629 61.4795 109.473 69.94 109.52C80.73 109.79 91.53 109.65 102.32 109.41C109.22 109.26 116.12 109.05 123.02 108.94C132.33 108.78 141.62 108.38 150.92 107.94C156.92 107.66 162.85 107.33 168.82 106.99C178.47 106.44 188.11 105.82 197.74 105.05C204.53 104.51 211.34 104.12 218.13 103.5C228.26 102.57 238.4 101.67 248.51 100.5C258.19 99.3598 267.81 97.8798 277.35 95.9398C284.85 94.4098 292.27 92.5398 299.62 90.3998C306.501 88.5307 313.263 86.25 319.87 83.5698C323.334 82.1927 326.579 80.3162 329.5 77.9998C331.033 76.8997 332.281 75.4494 333.14 73.7698C333.39 73.4098 333.66 73.0598 333.88 72.6798C335.51 69.9998 336.68 67.1298 336.05 63.7998ZM21.94 67.1998C19.9802 66.1878 18.1725 64.9053 16.57 63.3898C15.96 61.3398 15.46 59.2598 16.14 57.1398C17.1639 53.9112 19.1022 51.049 21.72 48.8998C24.0131 47.0822 26.4704 45.482 29.06 44.1198C37.8099 39.4018 46.9222 35.3891 56.31 32.1198C64.4 29.1198 72.63 26.6298 80.97 24.4398C93.8145 21.0845 106.89 18.6879 120.09 17.2698C129.98 16.1998 139.92 15.7098 149.87 15.5598C166.28 15.2998 182.68 15.4298 199.07 16.6198C205.67 17.0998 212.25 17.7798 218.78 18.7398C228.447 20.1584 238.033 22.0811 247.5 24.4998C262.259 28.2895 276.663 33.3483 290.55 39.6198C290.943 39.9009 291.417 40.045 291.9 40.0298C300.551 43.9678 308.849 48.6416 316.7 53.9998C318.07 54.9398 319.7 55.6098 320.59 57.1198C320.679 57.3 320.752 57.4873 320.81 57.6798C321.077 58.8051 320.976 59.9867 320.52 61.0498C319.947 62.7563 319.041 64.3323 317.855 65.6866C316.669 67.0408 315.226 68.1466 313.61 68.9398L309.48 71.0698C306.05 72.3098 302.67 73.6698 299.19 74.7498C288.899 77.9487 278.435 80.5662 267.85 82.5898C267.518 82.6347 267.185 82.6614 266.85 82.6698H265.85H265.78H264.97L262.49 83.1898H262.27L261.85 83.2798L260.95 83.4398L260.41 83.5198C259.55 83.6398 258.69 83.7498 257.84 83.9598L257.54 84.0398C257.28 84.1098 257.02 84.1898 256.76 84.2898C256.587 84.2785 256.413 84.2785 256.24 84.2898H255.83C254.691 84.4862 253.535 84.5633 252.38 84.5198C251.691 84.7512 250.965 84.8496 250.24 84.8098C249.697 84.9766 249.142 85.1003 248.58 85.1798C247.89 85.2798 247.2 85.3398 246.51 85.4098L245.77 85.4898C242.657 85.8431 239.54 86.1764 236.42 86.4898L231.16 87.0298L230.16 87.1298L228.29 87.2998L226.88 87.4098L225.48 87.5098L224.48 87.5798H223.93L222.44 87.6998H221.81L221 87.7598H218.39C217.47 88.2798 216.39 87.8998 215.45 88.2098H215.33L212.89 88.2998C212.61 88.5598 212.27 88.4298 211.95 88.4598L209.52 88.5398C209.32 88.7598 209.06 88.6898 208.82 88.6998L206.65 88.8598L205.53 88.9398C202.02 89.1998 198.53 89.4598 195 89.7498C193.677 89.9598 192.333 90.0001 191 89.8698L176.37 91.0998C177.78 90.5698 179.04 90.6398 180.14 90.0998L186.73 88.9298C186.954 88.8617 187.168 88.7677 187.37 88.6498C188.55 88.3998 189.93 88.7198 190.74 87.4498C191 87.2098 191.27 86.9698 191.52 86.7198C192.44 85.8098 192.4 85.5898 191.37 84.8498C190.416 84.0318 189.663 83.0053 189.17 81.8498C188.729 80.9027 187.971 80.1394 187.027 79.692C186.083 79.2447 185.012 79.1413 184 79.3998C178.62 80.2698 173.24 81.1998 167.84 81.9198C154.778 83.5665 141.625 84.3882 128.46 84.3798C110.947 84.5264 93.438 83.7854 76 82.1598C64.881 81.2076 53.878 79.1986 43.14 76.1598C35.7101 74.1184 28.5819 71.1057 21.94 67.1998Z" fill="#ECDE62"/>
</svg>
