<svg width="470" height="140" viewBox="0 0 470 140" fill="none" xmlns="http://www.w3.org/2000/svg">
<path d="M469.749 81.415C468.864 76.695 466.427 72.3329 462.759 68.9093C461.183 67.457 459.817 65.8276 458.692 64.0601C457.102 61.3652 454.888 59.0182 452.206 57.182C451.347 56.0662 450.26 55.1128 449.004 54.3746C442.389 49.793 435.439 45.6276 428.204 41.9072L427.617 41.7285L426.932 41.5243C414.973 35.3659 402.574 29.9474 389.819 25.3052C377.313 20.6413 364.503 16.6864 351.462 13.4631C351.043 13.361 350.596 13.3227 350.148 13.2589C349.701 13.1951 349.589 13.0037 349.31 12.9016L349.1 12.8378L344.906 11.8424C342.754 11.332 340.601 10.8343 338.448 10.3494L337.218 10.0814C320.684 6.45265 303.899 3.85196 286.979 2.29728C272.414 1.02119 257.792 0.35762 243.227 0.140685C218.303 -0.20386 193.463 0.000314621 168.693 2.15691C155.805 3.30539 143.001 5.02812 130.28 7.26128C114.601 10.0242 99.1062 13.5988 83.8714 17.9677C83.3247 18.2408 82.6832 18.3094 82.0821 18.1591C81.523 18.1591 81.0896 18.644 80.4886 18.5292C80.4187 19.231 79.7337 19.2055 79.2445 19.3203C77.4832 19.7032 75.9176 20.7496 74.0165 20.5964C73.4574 20.5964 73.01 21.0686 72.409 20.9537C72.4182 21.08 72.3804 21.2055 72.3018 21.3097C72.2231 21.4139 72.1082 21.4909 71.9756 21.528L61.6874 24.8841C61.4192 24.9265 61.1449 24.9265 60.8767 24.8841C60.5831 25.0755 60.3315 25.3307 59.9261 25.2414C59.2272 26.0836 58.095 26.1091 57.1304 26.4537C51.6369 28.4444 46.1293 30.4989 40.7895 32.7065H40.6917C40.4401 32.8214 40.2024 32.9873 39.9648 33.1277C39.3777 33.3318 38.7766 33.5105 38.1895 33.7274L37.7981 33.8678C30.9309 36.6531 24.2638 39.8327 17.8368 43.3874C12.0077 46.4868 7.05692 50.7921 3.38301 55.9569C1.67242 58.2353 0.575678 60.8504 0.182153 63.5891C-0.211372 66.3278 0.109454 69.1126 1.11849 71.7167C1.21634 71.9591 1.30021 72.2143 1.41204 72.4568C1.83299 73.45 2.32324 74.4176 2.87978 75.3535C3.20129 75.8895 3.53677 76.4382 3.91419 76.9869C3.91419 77.2166 3.91419 77.4335 4.22172 77.5229V77.7653V78.0844C5.2142 79.437 6.3185 80.7259 7.19915 82.1423C13.182 91.6237 20.8422 99.5355 31.5777 104.55C31.7289 104.753 31.9126 104.934 32.1229 105.086C35.7534 106.921 39.4861 108.582 43.3057 110.063C53.6358 114.096 64.4831 116.533 75.4563 118.677H77.1477L76.5047 118.536C76.7252 118.556 76.9416 118.603 77.1477 118.677L85.8284 120.208C80.774 120.42 75.7094 120.292 70.6756 119.825C62.7759 119.129 54.9446 117.891 47.2476 116.125L44.6476 115.576L43.3336 115.346C42.5139 115.153 41.6763 115.029 40.8315 114.976H40.2863C40.2514 114.898 40.2514 114.811 40.2863 114.734C39.5065 114.542 38.6871 114.528 37.8999 114.692C37.1126 114.857 36.3817 115.195 35.7713 115.678C35.6075 115.814 35.4106 115.913 35.1967 115.967C34.9828 116.02 34.7581 116.026 34.5411 115.984C33.3949 115.831 33.2411 116.354 33.5067 117.26C33.982 118.855 35.4078 119.813 36.3024 121.165C39.0941 126.601 44.0245 130.879 50.1132 133.148C50.4207 133.684 51.0498 133.658 51.5111 133.837C55.0959 135.025 58.7858 135.93 62.5401 136.542C74.1455 138.621 85.9395 139.698 97.766 139.758C112.849 140.102 127.946 139.924 143.028 139.617C152.674 139.426 162.319 139.158 171.964 139.018C184.978 138.814 197.964 138.303 210.964 137.742C219.351 137.384 227.641 136.963 235.986 136.529C249.475 135.827 262.95 135.036 276.412 134.054C285.903 133.365 295.422 132.867 304.914 132.076C319.074 130.889 333.248 129.741 347.381 128.248C360.912 126.793 374.359 124.904 387.695 122.429C398.179 120.476 408.551 118.09 418.825 115.359C428.443 112.974 437.896 110.063 447.131 106.643C451.974 104.886 456.509 102.491 460.593 99.5355C462.735 98.1316 464.48 96.281 465.681 94.1376C466.03 93.6782 466.408 93.2316 466.715 92.7467C468.994 89.3267 470.629 85.6643 469.749 81.415ZM30.6691 85.7537C27.9296 84.4623 25.4027 82.8257 23.1626 80.8918C22.3099 78.2758 21.611 75.6215 22.5615 72.9162C23.9928 68.7963 26.7023 65.1437 30.3616 62.4012C33.567 60.0818 37.0019 58.0398 40.6218 56.3015C52.8529 50.2809 65.5905 45.1604 78.7133 40.9884C90.0219 37.1601 101.526 33.9826 113.184 31.188C131.139 26.9063 149.417 23.8481 167.868 22.0384C181.693 20.673 195.588 20.0477 209.496 19.8563C232.435 19.5245 255.36 19.6904 278.271 21.209C287.497 21.8215 296.694 22.6892 305.822 23.9143C319.336 25.7246 332.736 28.1781 345.969 31.2646C366.6 36.1006 386.734 42.5561 406.146 50.5591C406.695 50.9179 407.358 51.1017 408.033 51.0823C420.127 56.1075 431.725 62.0718 442.7 68.9093C444.615 70.1088 446.894 70.9638 448.138 72.8907C448.262 73.1206 448.365 73.3597 448.445 73.6053C448.819 75.0413 448.677 76.5491 448.04 77.9057C447.239 80.0834 445.973 82.0945 444.315 83.8227C442.657 85.5509 440.64 86.9619 438.381 87.9741L432.608 90.6921C427.813 92.2745 423.088 94.01 418.224 95.3882C403.838 99.4703 389.212 102.81 374.415 105.393C373.951 105.45 373.485 105.484 373.017 105.495H371.619H371.521H370.389L366.923 106.158H366.615L366.028 106.273L364.77 106.477L364.015 106.579C362.813 106.733 361.611 106.873 360.423 107.141L360.003 107.243C359.64 107.332 359.276 107.434 358.913 107.562C358.671 107.548 358.428 107.548 358.186 107.562H357.613C356.021 107.813 354.405 107.911 352.79 107.856C351.828 108.151 350.813 108.276 349.799 108.226C349.04 108.439 348.264 108.596 347.478 108.698C346.514 108.825 345.549 108.902 344.585 108.991L343.55 109.093C339.198 109.544 334.842 109.97 330.481 110.369L323.128 111.059L321.73 111.186L319.116 111.403L317.145 111.543L315.188 111.671L313.79 111.76H313.021L310.939 111.914H310.058L308.926 111.99H305.277C303.991 112.654 302.482 112.169 301.168 112.564H301L297.589 112.679C297.198 113.011 296.722 112.845 296.275 112.883L292.878 112.985C292.599 113.266 292.235 113.177 291.9 113.19L288.866 113.394L287.301 113.496C282.394 113.828 277.516 114.159 272.581 114.53C270.732 114.798 268.853 114.849 266.99 114.683L246.539 116.252C248.51 115.576 250.272 115.665 251.809 114.976L261.021 113.483C261.334 113.396 261.634 113.276 261.916 113.126C263.565 112.807 265.494 113.215 266.627 111.595C266.99 111.288 267.367 110.982 267.717 110.663C269.003 109.502 268.947 109.221 267.507 108.277C266.174 107.233 265.122 105.923 264.432 104.448C263.816 103.24 262.756 102.266 261.436 101.695C260.117 101.124 258.62 100.992 257.205 101.322C249.685 102.432 242.164 103.619 234.616 104.538C216.357 106.639 197.972 107.688 179.568 107.677C155.088 107.864 130.613 106.918 106.237 104.844C90.6943 103.629 75.3137 101.065 60.3036 97.1875C49.9176 94.5824 39.9535 90.738 30.6691 85.7537Z" fill="#ECDE62"/>
</svg>
