<svg width="176" height="176" viewBox="0 0 176 176" fill="none" xmlns="http://www.w3.org/2000/svg">
<path d="M85.4916 9.70585C106.003 18.3698 124.371 39.1476 116.589 62.8679C112.989 73.9014 102.584 82.8115 90.7834 83.3711C81.6244 83.8031 73.6946 76.5047 78.2866 67.4309L78.2875 67.43C81.7608 61.1611 88.0535 56.9611 95.1753 56.1591C121.921 52.9631 128.795 85.5313 122.689 105.093C115.632 127.795 97.0631 145.317 74.7867 152.743C71.5558 153.824 72.943 158.933 76.1739 157.853C100.326 149.796 120.227 130.939 127.828 106.372C134.04 86.3726 129.494 60.3495 107.566 52.3241C102.892 50.6162 97.8451 50.1903 92.9505 51.0893C88.0559 51.9882 83.4913 54.181 79.7291 57.4388C73.6251 62.7133 68.6872 72.2405 72.7102 80.1776C77.2551 89.2938 89.9785 89.8344 98.5414 87.2642C108.123 84.2956 115.986 77.385 120.162 68.2633C132.24 41.6697 112.031 15.1878 88.0494 5.07706C84.9564 3.77607 82.3484 8.37757 85.492 9.70426L85.4916 9.70585Z" fill="white"/>
<path d="M100.697 155.466C91.4676 156.142 82.2061 156.276 72.9609 155.868L75.5388 159.157C78.7506 148.728 81.0377 138.037 82.3747 127.207C82.7766 123.874 77.6259 122.556 77.2374 125.926C75.909 136.753 73.6252 147.44 70.4133 157.864C70.2242 158.659 70.4068 159.497 70.911 160.14C71.416 160.783 72.1861 161.16 73.0036 161.166C82.2316 161.588 91.4757 161.472 100.69 160.815C104.066 160.568 104.035 155.257 100.635 155.53L100.697 155.466Z" fill="white"/>
</svg>
