<svg width="103" height="164" viewBox="0 0 103 164" fill="none" xmlns="http://www.w3.org/2000/svg">
<path d="M30.0827 9.21232C36.2349 9.63439 51.3909 14.1662 62.7973 28.9166C77.0552 47.3546 72.7496 62.8221 69.2864 68.5889C65.8231 74.3557 52.4492 86.0414 33.1214 83.4557C13.1465 78.4552 29.9158 56.8798 46.8188 52.3506C63.7218 47.8215 80.7835 67.0611 82.4658 73.3397C84.1481 79.6182 93.3523 100.446 77.7266 123.268C65.226 141.525 47.2731 153.859 39.8592 157.743" stroke="white" stroke-width="5"/>
<path d="M66.5261 156.81C58.4652 158.279 41.8086 161.155 39.6697 160.9C37.5308 160.645 39.869 139.106 41.3055 128.368" stroke="white" stroke-width="5"/>
</svg>
